<?xml version="1.0" encoding="UTF-8" standalone="no"?>
<!-- Created with Inkscape (http://www.inkscape.org/) -->

<svg
   xmlns:dc="http://purl.org/dc/elements/1.1/"
   xmlns:cc="http://creativecommons.org/ns#"
   xmlns:rdf="http://www.w3.org/1999/02/22-rdf-syntax-ns#"
   xmlns:svg="http://www.w3.org/2000/svg"
   xmlns="http://www.w3.org/2000/svg"
   xmlns:sodipodi="http://sodipodi.sourceforge.net/DTD/sodipodi-0.dtd"
   xmlns:inkscape="http://www.inkscape.org/namespaces/inkscape"
   width="131"
   height="70"
   id="svg4213"
   version="1.1"
   inkscape:version="0.48.4 r9939"
   sodipodi:docname="bucknell_logo_white.svg"
   inkscape:export-filename="C:\Users\Travis\Dropbox\workspace\imageprocessing\JDposter\bucknell_logo_white.png"
   inkscape:export-xdpi="599.40002"
   inkscape:export-ydpi="599.40002">
  <defs
     id="defs4215" />
  <sodipodi:namedview
     id="base"
     pagecolor="#ffffff"
     bordercolor="#666666"
     borderopacity="1.0"
     inkscape:pageopacity="0.0"
     inkscape:pageshadow="2"
     inkscape:zoom="7.4142857"
     inkscape:cx="53.058818"
     inkscape:cy="35"
     inkscape:document-units="px"
     inkscape:current-layer="layer1"
     showgrid="false"
     fit-margin-top="10"
     fit-margin-left="10"
     fit-margin-right="10"
     fit-margin-bottom="10"
     inkscape:window-width="1366"
     inkscape:window-height="706"
     inkscape:window-x="-8"
     inkscape:window-y="-8"
     inkscape:window-maximized="1" />
  <metadata
     id="metadata4218">
    <rdf:RDF>
      <cc:Work
         rdf:about="">
        <dc:format>image/svg+xml</dc:format>
        <dc:type
           rdf:resource="http://purl.org/dc/dcmitype/StillImage" />
        <dc:title></dc:title>
      </cc:Work>
    </rdf:RDF>
  </metadata>
  <g
     inkscape:label="Layer 1"
     inkscape:groupmode="layer"
     id="layer1"
     transform="translate(-195.04598,-296.78969)">
    <g
       id="g3469"
       transform="translate(205.04598,306.78969)"
       style="fill:#ffffff">
      <g
         id="g3471"
         style="fill:#ffffff">
        <path
           style="fill:#ffffff"
           inkscape:connector-curvature="0"
           id="path3473"
           d="m 53.0657,0 -5.3687,0 0,0.8268 2.1184,0 0,34.3747 -2.0014,0 0,0.8195 7.1719,0 0,-0.8025 -1.918,0 0,-9.7772 1.5147,-2.025 5.3406,11.7927 -1.5177,0 0,0.812 6.4049,0 0,-0.81 -1.3679,0 -6.6384,-14.6908 c 0,0 2.9232,-4.1883 4.2022,-5.205 0.7643,-0.6075 1.4501,-0.8205 2.5323,-0.8205 l 0,-0.8089 -6.7992,0 0,0.81 c 0.7851,0 1.0864,0.001 1.3063,0.3058 0.4712,0.6486 -0.2242,2.3002 -2.0047,4.8938 -1.4218,2.0692 -2.9731,4.2367 -2.9731,4.2367 L 53.0657,0 z" />
        <g
           id="g3475"
           style="fill:#ffffff">
          <path
             style="fill:#ffffff"
             inkscape:connector-curvature="0"
             id="path3477"
             d="m 63.2904,40.381 c 1.0445,0 1.7889,0.116 2.3601,0.4916 0.5556,0.3755 0.9424,0.984 0.9424,1.8373 0,1.2161 -0.8319,2.0683 -1.9891,2.5028 0.2273,0.405 0.8424,1.4723 1.2782,2.1378 1.2416,1.8816 1.6951,2.1316 2.2996,2.1833 l 0.0625,0.3058 c 0,0 -0.2126,0.094 -0.9528,0.1287 -1.4073,0.0665 -2.0641,-0.6233 -2.4945,-1.331 -0.4181,-0.6908 -0.9665,-1.6602 -1.3793,-2.4121 -0.2303,-0.405 -0.4003,-0.5495 -0.8299,-0.5495 l -0.4585,0 0,1.9375 c 0,1.563 0.1157,1.6791 1.201,1.7656 l 0,0.405 -4.0302,0 0,-0.405 c 1.1435,-0.0865 1.2572,-0.2026 1.2572,-1.7656 l 0,-5.0626 c 0,-1.562 -0.1137,-1.678 -1.2011,-1.7645 l 0,-0.4051 3.9344,0 z m -1.1613,4.8021 0.6318,0 c 0.5712,0 0.9714,-0.0854 1.3436,-0.3754 0.5725,-0.4631 0.8184,-1.157 0.8184,-1.8521 0,-1.505 -1.0759,-2.025 -1.989,-2.025 -0.6881,0 -0.8048,0.058 -0.8048,0.52 l 0,3.7325 z" />
          <g
             id="g3479"
             style="fill:#ffffff">
            <path
               style="fill:#ffffff"
               inkscape:connector-curvature="0"
               id="path3481"
               d="m 5.3207,40.3791 0,0.4049 C 4.2626,40.8716 4.149,40.9581 4.149,42.5211 l 0,3.0513 c 0,2.3002 0.7432,3.588 2.4301,3.588 1.7305,0 2.5884,-1.331 2.5884,-3.8623 l 0,-0.8681 c 0,-1.6495 -0.0719,-2.4594 -0.1292,-2.893 C 8.9662,41.015 8.5671,40.842 7.6518,40.784 l 0,-0.4049 3.4879,0 0,0.4049 c -0.7149,0.0295 -1.0861,0.231 -1.1571,0.753 -0.0583,0.4336 -0.1291,1.2435 -0.1291,2.893 l 0,1.0273 c 0,1.4028 -0.2576,2.6031 -1.0436,3.4574 C 8.1803,49.6087 7.1649,50 6.1641,50 5.2779,50 4.3346,49.8259 3.6194,49.2321 2.8614,48.6109 2.5477,47.5689 2.5477,45.8624 l 0,-3.3413 c 0,-1.563 -0.1145,-1.6495 -1.2592,-1.7371 l 0,-0.4049 4.0322,0 z" />
            <path
               style="fill:#ffffff"
               inkscape:connector-curvature="0"
               id="path3483"
               d="m 16.7337,40.301 5.7044,6.7976 0.0292,0 0,-2.7465 c 0,-1.6496 -0.0719,-2.4606 -0.1292,-2.8941 -0.071,-0.521 -0.4712,-0.6941 -1.3865,-0.752 l 0,-0.405 3.488,0 0,0.405 c -0.714,0.0294 -1.0862,0.231 -1.158,0.752 -0.0565,0.4335 -0.1284,1.2445 -0.1284,2.8941 l 0,5.4675 -0.6567,0 -5.892,-7.2911 -0.0282,0 0,3.1241 c 0,1.6485 0.0709,2.4585 0.1283,2.8929 0.0719,0.521 0.4721,0.695 1.3874,0.7521 l 0,0.4061 -3.4891,0 0,-0.4061 c 0.7152,-0.0286 1.0873,-0.2311 1.1581,-0.7521 0.0574,-0.4344 0.1292,-1.2444 0.1292,-2.8929 l 0,-2.8351 c 0,-1.678 -0.3146,-2.025 -1.4873,-2.1115 l 0,-0.405 2.3308,0 z" />
            <path
               style="fill:#ffffff"
               inkscape:connector-curvature="0"
               id="path3485"
               d="m 32.3374,40.3791 0,0.4049 c -1.0873,0.0876 -1.2009,0.2026 -1.2009,1.7656 l 0,5.0625 c 0,1.562 0.1136,1.678 1.2009,1.7645 l 0,0.405 -4.0322,0 0,-0.405 c 1.1153,-0.0865 1.2301,-0.2025 1.2301,-1.7645 l 0,-5.0625 c 0,-1.563 -0.1148,-1.678 -1.2301,-1.7656 l 0,-0.4049 4.0322,0 z" />
            <path
               style="fill:#ffffff"
               inkscape:connector-curvature="0"
               id="path3487"
               d="m 39.4251,40.3791 0,0.4049 -0.4576,0.0728 c -0.5432,0.0727 -0.5713,0.174 -0.4003,0.7373 0.2866,0.8974 1.4009,3.762 2.2736,6.018 0.5724,-1.5472 1.7732,-4.8316 2.0296,-5.6131 0.3003,-0.925 0.1722,-1.0979 -0.4575,-1.1707 l -0.4285,-0.0443 0,-0.4049 3.2464,0 0,0.4049 c -0.9154,0.1171 -0.9728,0.2183 -1.6305,1.563 -0.143,0.288 -1.9161,4.5712 -3.0169,7.5233 l -0.6153,0 c -0.9714,-2.6052 -2.3308,-6.1638 -2.8729,-7.6107 -0.4868,-1.3015 -0.7151,-1.388 -1.5157,-1.4756 l 0,-0.4049 3.8456,0 z" />
            <path
               style="fill:#ffffff"
               inkscape:connector-curvature="0"
               id="path3489"
               d="m 54.6044,40.3791 c 0.0293,0.2309 0.0856,1.3024 0.1711,2.199 L 54.347,42.6065 C 54.2042,41.9136 54.0312,41.5086 53.8175,41.2902 53.5746,41.0446 53.1169,40.9581 52.232,40.9581 l -0.7162,0 c -0.5431,0 -0.5725,0 -0.5725,0.5209 l 0,3.0672 1.2302,0 c 1.2301,0 1.2593,-0.0877 1.4011,-1.2014 l 0.4566,0 0,3.0671 -0.4566,0 c -0.1418,-1.1434 -0.171,-1.2013 -1.4011,-1.2013 l -1.2302,0 0,2.3731 c 0,0.8384 0.0585,1.2434 0.3159,1.4322 0.2566,0.173 0.7703,0.1878 1.3729,0.1878 0.7141,0 1.372,-0.058 1.6723,-0.4187 0.2428,-0.2753 0.4858,-0.7668 0.7298,-1.4618 l 0.4294,0.0864 c -0.0585,0.4926 -0.3733,1.967 -0.4879,2.372 l -6.9762,0 0,-0.405 c 1.229,-0.0865 1.3426,-0.2025 1.3426,-1.7645 l 0,-5.0625 c 0,-1.563 -0.1136,-1.678 -1.201,-1.7656 l 0,-0.4049 6.4633,0 z" />
            <path
               style="fill:#ffffff"
               inkscape:connector-curvature="0"
               id="path3491"
               d="m 76.5423,42.5929 c -0.2733,-0.8397 -0.7444,-1.8522 -2.0204,-1.8522 -1.0016,0 -1.5491,0.6951 -1.5491,1.5189 0,0.81 0.6067,1.3458 1.7764,1.852 l 0.3962,0.174 c 1.1852,0.5063 2.2777,1.273 2.2777,2.777 0,1.7224 -1.4104,2.9374 -3.462,2.9374 -0.5776,0 -1.1249,-0.1171 -1.5199,-0.2468 -0.4253,-0.1298 -0.6985,-0.2458 -0.8799,-0.3037 -0.1209,-0.3766 -0.3045,-1.3596 -0.4565,-2.2424 l 0.4565,-0.1445 c 0.3023,0.752 1.1238,2.3583 2.6876,2.3583 0.9882,0 1.5949,-0.7384 1.5949,-1.6347 0,-0.81 -0.4108,-1.3891 -1.6095,-1.9534 l -0.4859,-0.2309 c -1.0027,-0.4925 -2.2787,-1.2582 -2.2787,-2.6758 0,-1.5188 1.1998,-2.7632 3.2346,-2.7632 0.4097,0 0.9581,0.0579 1.3833,0.2024 0.243,0.0865 0.4547,0.1149 0.636,0.1877 0.0626,0.5064 0.1522,1.1423 0.3065,1.9522 l -0.4878,0.0877 z" />
            <path
               style="fill:#ffffff"
               inkscape:connector-curvature="0"
               id="path3493"
               d="m 85.6472,40.3791 0,0.4049 c -1.0852,0.0876 -1.2009,0.2026 -1.2009,1.7656 l 0,5.0625 c 0,1.562 0.1157,1.678 1.2009,1.7645 l 0,0.405 -4.0302,0 0,-0.405 c 1.1134,-0.0865 1.228,-0.2025 1.228,-1.7645 l 0,-5.0625 c 0,-1.563 -0.1146,-1.678 -1.228,-1.7656 l 0,-0.4049 4.0302,0 z" />
            <path
               style="fill:#ffffff"
               inkscape:connector-curvature="0"
               id="path3495"
               d="m 89.5815,42.6656 c 0.0542,-0.9555 0.1417,-1.9101 0.1689,-2.6632 l 0.2574,0 c 0.2001,0.3481 0.343,0.3767 0.7434,0.3767 l 5.892,0 c 0.3711,0 0.4565,-0.0855 0.6859,-0.3767 l 0.2272,0 c 0.0314,0.6076 0.0877,1.7077 0.174,2.6326 l -0.4305,0.0306 c -0.1416,-0.752 -0.3126,-1.1286 -0.5284,-1.3468 -0.243,-0.2742 -0.7005,-0.3607 -1.5857,-0.3607 l -0.7442,0 0,6.654 c 0,1.562 0.1126,1.678 1.4293,1.7645 l 0,0.405 -4.4034,0 0,-0.405 c 1.2582,-0.0865 1.3729,-0.2025 1.3729,-1.7645 l 0,-6.654 -0.4878,0 c -1.2282,0 -1.6013,0.1739 -1.8286,0.4335 -0.1731,0.2025 -0.344,0.579 -0.5161,1.274 l -0.4263,0 z" />
            <path
               style="fill:#ffffff"
               inkscape:connector-curvature="0"
               id="path3497"
               d="m 104.8556,40.3791 0,0.4049 -0.6004,0.0876 c -0.3711,0.0579 -0.4003,0.173 -0.1708,0.637 0.3428,0.693 1.257,2.4427 1.844,3.3982 0.4431,-0.7657 1.2291,-2.3287 1.6586,-3.3127 0.2429,-0.5495 0.1563,-0.693 -0.344,-0.7521 l -0.5714,-0.058 0,-0.4049 3.2171,0 0,0.4049 c -0.8578,0.0876 -0.9861,0.2606 -1.5865,1.215 -0.5443,0.8681 -1.0727,1.7656 -1.8015,3.1979 -0.1438,0.2604 -0.1876,0.3755 -0.1876,0.868 l 0,1.5472 c 0,1.562 0.1157,1.678 1.4011,1.7645 l 0,0.405 -4.3461,0 0,-0.405 c 1.2312,-0.0865 1.3437,-0.2025 1.3437,-1.7645 l 0,-1.4038 c 0,-0.3026 0.0156,-0.3755 -0.2001,-0.7804 -0.4566,-0.868 -0.9716,-1.7793 -1.9161,-3.4289 -0.6129,-1.0842 -0.6859,-1.1274 -1.4281,-1.215 l 0,-0.4049 3.6881,0 z" />
          </g>
        </g>
        <path
           style="fill:#ffffff"
           inkscape:connector-curvature="0"
           id="path3499"
           d="m 79.1412,35.2057 0,-17.4552 c 0,-2.5998 -1.7483,-4.5953 -4.9122,-4.5953 -3.314,0 -4.4076,2.0377 -4.4732,2.3288 l 0,-1.8047 -4.0844,0 -1.1917,0 -9e-4,0.8132 c 0.0083,0 1.8097,0.0011 1.8181,0.0011 l -0.0063,0 0.0042,20.7121 -1.5512,0 0,0.8132 6.9752,0 0.0031,-0.8132 -1.9661,0 0,-15.967 c 0,-2.5661 1.0381,-4.9961 3.3964,-4.9961 1.9192,0 2.527,1.9459 2.527,3.9772 l 0,16.9934 -2.0746,0 0,0.8057 7.6433,0 0,-0.8132 -2.1067,0 z" />
        <path
           style="fill:#ffffff"
           inkscape:connector-curvature="0"
           id="path3501"
           d="m 85.3385,23.4617 -0.1396,0 c -0.023,0.8279 -0.0334,1.2688 -0.0334,1.8826 0,3.8718 -0.0155,10.2274 4.1345,10.2274 3.3235,0 3.7737,-5.8303 3.7737,-7.9756 l 2.087,-0.0032 c -0.244,4.356 -1.4719,8.8258 -5.9484,8.8258 -6.2316,0 -8.0311,-6.3756 -8.0311,-11.2135 0,-6.3779 2.9794,-12.0479 7.706,-12.0479 2.8521,0 4.6181,2.0567 5.2019,3.5744 1.0383,2.7222 1.078,5.1595 1.078,6.73 l -9.8286,0 z M 91.6164,22.6 c 0,-2.7728 -0.2899,-8.7603 -2.8022,-8.7603 -1.4658,0 -2.2424,1.157 -2.6269,2.2761 -0.88,2.5534 -0.9248,4.5805 -0.9884,6.4842 l 6.4175,0 z" />
        <path
           style="fill:#ffffff"
           inkscape:connector-curvature="0"
           id="path3503"
           d="m 28.9056,34.6024 c -0.3065,0.4683 -1.2228,1.9312 -4.1345,1.9312 -2.1317,0 -4.7485,-1.8214 -4.7485,-5.5382 l 0,-16.5018 -1.7545,0 0,-0.8143 5.1082,0 0,17.4996 c 0,3.3666 1.1717,4.2662 2.5937,4.2662 2.3299,0 2.9409,-2.5734 2.9409,-4.8969 l 0,-16.0546 -1.6232,0 0,-0.8143 4.9788,0 0,21.5264 1.937,0 0,0.8132 -5.2926,0 -0.0053,-1.4165 z" />
        <path
           style="fill:#ffffff"
           inkscape:connector-curvature="0"
           id="path3505"
           d="m 42.3743,36.4154 c 3.9655,0 5.3823,-4.2936 5.5063,-8.7845 l -2.034,0 c -0.0353,2.1326 -0.0406,7.9439 -3.49,7.9439 -4.0594,-0.0031 -4.0594,-6.6593 -4.0594,-10.531 0,-3.4542 -0.07,-11.0955 4.0218,-11.0955 1.6054,0 2.7437,1.3057 2.7437,2.4522 0,1.543 -1.4938,1.8015 -1.4938,3.5797 0,1.1327 0.787,2.0038 1.8828,2.0038 1.6805,0 2.0046,-1.871 2.0046,-2.7601 0,-1.9258 -1.1592,-6.0687 -5.1789,-6.0687 -5.7659,0 -7.951,7.096 -7.951,12.0024 0,6.0108 3.0106,11.2578 8.0479,11.2578 z" />
        <path
           style="fill:#ffffff"
           inkscape:connector-curvature="0"
           id="path3507"
           d="m 111,36.0189 0,-0.8132 -2.3456,0 0,-35.1994 -5.5291,0 0,0.8142 2.1746,0 0.004,34.3852 -4.5661,0 0,-35.1994 -5.5292,0 0,0.8142 2.1746,0 0,34.3852 -2.3006,0 0,0.8132 15.9173,0 z" />
        <path
           style="fill:#ffffff"
           inkscape:connector-curvature="0"
           id="path3509"
           d="m 0,35.269 2.5583,0 0,-33.4265 -2.5583,0 0,-0.8142 6.8822,0 c 5.7222,0 9.9505,1.8753 9.9505,8.2235 0,4.5004 -4.3105,7.2626 -7.6548,7.6296 l 0,0.1044 c 2.9314,0.347 4.6764,0.7763 6.6135,2.7771 1.6178,1.6706 2.1683,3.8676 2.1683,6.2374 0,6.7765 -3.875,10.082 -9.6116,10.082 L 0,36.0823 0,35.269 z M 6.1547,16.4712 c 0.7288,0 2.4165,0 3.6321,-0.4693 1.4593,-0.5749 3.2305,-2.7824 3.3108,-6.2851 C 13.1476,7.5695 13.1914,4.7197 11.367,3.2009 10.0911,2.1567 8.7077,1.8425 6.1547,1.8425 l 0,14.6287 z m 0,18.7978 c 2.9649,0 4.6734,-0.0084 6.1673,-2.2085 1.499,-2.2065 1.6847,-4.9381 1.6847,-7.136 0,-4.1926 -1.1374,-5.6586 -2.1101,-6.7576 -1.7012,-1.8309 -3.9196,-1.62 -5.7419,-1.62 l 0,17.7221 z" />
      </g>
      <rect
         style="fill:#ffffff"
         id="rect3511"
         height="0.66670001"
         width="0.65679997"
         y="15.3333"
         x="69.621201" />
    </g>
  </g>
</svg>
